<mxfile host="app.diagrams.net" agent="Mozilla/5.0 (Windows NT 10.0; Win64; x64) AppleWebKit/537.36 (KHTML, like Gecko) Chrome/126.0.0.0 Safari/537.36" version="24.8.8">
  <diagram name="Halaman-1" id="LS2GMB4BtWxw87l2Nwz2">
    <mxGraphModel dx="1100" dy="575" grid="1" gridSize="10" guides="1" tooltips="1" connect="1" arrows="1" fold="1" page="1" pageScale="1" pageWidth="827" pageHeight="1169" math="0" shadow="0">
      <root>
        <mxCell id="0" />
        <mxCell id="1" parent="0" />
        <mxCell id="_vivzIOAHeGkdv4DLqOH-3" value="" style="edgeStyle=orthogonalEdgeStyle;rounded=0;orthogonalLoop=1;jettySize=auto;html=1;" edge="1" parent="1" source="_vivzIOAHeGkdv4DLqOH-1" target="_vivzIOAHeGkdv4DLqOH-2">
          <mxGeometry relative="1" as="geometry" />
        </mxCell>
        <mxCell id="_vivzIOAHeGkdv4DLqOH-1" value="Start" style="ellipse;whiteSpace=wrap;html=1;fontSize=17;" vertex="1" parent="1">
          <mxGeometry x="40" y="40" width="100" height="60" as="geometry" />
        </mxCell>
        <mxCell id="_vivzIOAHeGkdv4DLqOH-7" value="" style="edgeStyle=orthogonalEdgeStyle;rounded=0;orthogonalLoop=1;jettySize=auto;html=1;" edge="1" parent="1" source="_vivzIOAHeGkdv4DLqOH-2" target="_vivzIOAHeGkdv4DLqOH-6">
          <mxGeometry relative="1" as="geometry" />
        </mxCell>
        <mxCell id="_vivzIOAHeGkdv4DLqOH-2" value="scan barcode batang" style="whiteSpace=wrap;html=1;fontSize=17;" vertex="1" parent="1">
          <mxGeometry x="180" y="40" width="120" height="60" as="geometry" />
        </mxCell>
        <mxCell id="_vivzIOAHeGkdv4DLqOH-9" value="" style="edgeStyle=orthogonalEdgeStyle;rounded=0;orthogonalLoop=1;jettySize=auto;html=1;" edge="1" parent="1" source="_vivzIOAHeGkdv4DLqOH-6" target="_vivzIOAHeGkdv4DLqOH-8">
          <mxGeometry relative="1" as="geometry" />
        </mxCell>
        <mxCell id="_vivzIOAHeGkdv4DLqOH-6" value="data barang" style="strokeWidth=2;html=1;shape=mxgraph.flowchart.database;whiteSpace=wrap;fontSize=17;" vertex="1" parent="1">
          <mxGeometry x="330" y="40" width="100" height="60" as="geometry" />
        </mxCell>
        <mxCell id="_vivzIOAHeGkdv4DLqOH-11" value="" style="edgeStyle=orthogonalEdgeStyle;rounded=0;orthogonalLoop=1;jettySize=auto;html=1;" edge="1" parent="1" source="_vivzIOAHeGkdv4DLqOH-8" target="_vivzIOAHeGkdv4DLqOH-10">
          <mxGeometry relative="1" as="geometry" />
        </mxCell>
        <mxCell id="_vivzIOAHeGkdv4DLqOH-8" value="ambil data brang" style="whiteSpace=wrap;html=1;strokeWidth=2;fontSize=17;" vertex="1" parent="1">
          <mxGeometry x="460" y="40" width="120" height="60" as="geometry" />
        </mxCell>
        <mxCell id="_vivzIOAHeGkdv4DLqOH-16" value="" style="edgeStyle=orthogonalEdgeStyle;rounded=0;orthogonalLoop=1;jettySize=auto;html=1;" edge="1" parent="1" source="_vivzIOAHeGkdv4DLqOH-10" target="_vivzIOAHeGkdv4DLqOH-15">
          <mxGeometry relative="1" as="geometry" />
        </mxCell>
        <mxCell id="_vivzIOAHeGkdv4DLqOH-10" value="tampilkan" style="shape=parallelogram;perimeter=parallelogramPerimeter;whiteSpace=wrap;html=1;fixedSize=1;strokeWidth=2;fontSize=17;" vertex="1" parent="1">
          <mxGeometry x="660" y="40" width="120" height="60" as="geometry" />
        </mxCell>
        <mxCell id="_vivzIOAHeGkdv4DLqOH-18" value="" style="edgeStyle=orthogonalEdgeStyle;rounded=0;orthogonalLoop=1;jettySize=auto;html=1;" edge="1" parent="1" source="_vivzIOAHeGkdv4DLqOH-15" target="_vivzIOAHeGkdv4DLqOH-17">
          <mxGeometry relative="1" as="geometry" />
        </mxCell>
        <mxCell id="_vivzIOAHeGkdv4DLqOH-15" value="input uang custumer" style="shape=parallelogram;perimeter=parallelogramPerimeter;whiteSpace=wrap;html=1;fixedSize=1;strokeWidth=2;fontSize=17;" vertex="1" parent="1">
          <mxGeometry x="660" y="180" width="120" height="60" as="geometry" />
        </mxCell>
        <mxCell id="_vivzIOAHeGkdv4DLqOH-21" value="" style="edgeStyle=orthogonalEdgeStyle;rounded=0;orthogonalLoop=1;jettySize=auto;html=1;" edge="1" parent="1" source="_vivzIOAHeGkdv4DLqOH-17" target="_vivzIOAHeGkdv4DLqOH-19">
          <mxGeometry relative="1" as="geometry" />
        </mxCell>
        <mxCell id="_vivzIOAHeGkdv4DLqOH-17" value="proses pergitungan harga barang dengan yang custumer" style="whiteSpace=wrap;html=1;fontSize=17;strokeWidth=2;" vertex="1" parent="1">
          <mxGeometry x="380" y="180" width="200" height="60" as="geometry" />
        </mxCell>
        <mxCell id="_vivzIOAHeGkdv4DLqOH-27" value="" style="edgeStyle=orthogonalEdgeStyle;rounded=0;orthogonalLoop=1;jettySize=auto;html=1;" edge="1" parent="1" source="_vivzIOAHeGkdv4DLqOH-19" target="_vivzIOAHeGkdv4DLqOH-26">
          <mxGeometry relative="1" as="geometry" />
        </mxCell>
        <mxCell id="_vivzIOAHeGkdv4DLqOH-19" value="pengurangan jumlah barang" style="strokeWidth=2;html=1;shape=mxgraph.flowchart.database;whiteSpace=wrap;fontSize=17;" vertex="1" parent="1">
          <mxGeometry x="230" y="180" width="110" height="60" as="geometry" />
        </mxCell>
        <mxCell id="_vivzIOAHeGkdv4DLqOH-29" value="" style="edgeStyle=orthogonalEdgeStyle;rounded=0;orthogonalLoop=1;jettySize=auto;html=1;" edge="1" parent="1" source="_vivzIOAHeGkdv4DLqOH-26" target="_vivzIOAHeGkdv4DLqOH-28">
          <mxGeometry relative="1" as="geometry" />
        </mxCell>
        <mxCell id="_vivzIOAHeGkdv4DLqOH-26" value="tampilkan pembelian berhasil" style="shape=parallelogram;perimeter=parallelogramPerimeter;whiteSpace=wrap;html=1;fixedSize=1;fontSize=17;strokeWidth=2;" vertex="1" parent="1">
          <mxGeometry x="35" y="180" width="120" height="60" as="geometry" />
        </mxCell>
        <mxCell id="_vivzIOAHeGkdv4DLqOH-28" value="End" style="ellipse;whiteSpace=wrap;html=1;fontSize=17;" vertex="1" parent="1">
          <mxGeometry x="45" y="280" width="100" height="60" as="geometry" />
        </mxCell>
      </root>
    </mxGraphModel>
  </diagram>
</mxfile>
